{"title":"The Slammin Salmon (PSP + Ipod touch + Zune)","uid":5635443,"size":392363246,"categoryP":"video","categoryS":"handheld","magnet":"?xt=urn:btih:2d050d1157ad4ea7c5ba0a7e09f73589bb5f20fc&amp;dn=The+Slammin+Salmon+%28PSP+%2B+Ipod+touch+%2B+Zune%29&amp;tr=udp%3A%2F%2Ftracker.openbittorrent.com%3A80&amp;tr=udp%3A%2F%2Fopen.demonii.com%3A1337&amp;tr=udp%3A%2F%2Ftracker.coppersurfer.tk%3A6969&amp;tr=udp%3A%2F%2Fexodus.desync.com%3A6969","seeders":0,"leechers":0,"uploader":"on.off.on","files":-1,"time":1276869951,"description":"The Slamming Salmon\n\nsource:\n\nThe.Slammin.Salmon.2009.LiMiTED.720p.BluRay.x264-SiNNERS &lt;a href=&quot;\nhttp://www.imdb.com/title/tt1135525/&quot; rel=&quot;nofollow&quot; target=&quot;_NEW&quot;&gt;\nhttp://www.imdb.com/title/tt1135525/&lt;/a&gt;\n\nID                               : 1\nFormat                           : AVC\nFormat/Info                      : Advanced Video Codec\nFormat profile                   : &lt;a class=&quot;__cf_email__&quot; href=&quot;/cdn-cgi/l/email-protection&quot; data-cfemail=&quot;f4b6958791989d9a91b4b8c6dac5&quot;&gt;[email&amp;#160;protected]&lt;/a&gt;&lt;script cf-hash='f9e31' type=&quot;text/javascript&quot;&gt;\n/* &lt;![CDATA[ */!function(){try{var t=&quot;currentScript&quot;in document?document.currentScript:function(){for(var t=document.getElementsByTagName(&quot;script&quot;),e=t.length;e--;)if(t[e].getAttribute(&quot;cf-hash&quot;))return t[e]}();if(t&amp;&amp;t.previousSibling){var e,r,n,i,c=t.previousSibling,a=c.getAttribute(&quot;data-cfemail&quot;);if(a){for(e=&quot;&quot;,r=parseInt(a.substr(0,2),16),n=2;a.length-n;n+=2)i=parseInt(a.substr(n,2),16)^r,e+=String.fromCharCode(i);e=document.createTextNode(e),c.parentNode.replaceChild(e,c)}}}catch(u){}}();/* ]]&gt; */&lt;/script&gt;\nFormat settings, CABAC           : No\nFormat settings, ReFrames        : 3 frames\nCodec ID                         : avc1\nCodec ID/Info                    : Advanced Video Coding\nDuration                         : 1h 38mn\nBit rate mode                    : Variable\nBit rate                         : 400 Kbps\nWidth                            : 480 pixels\nHeight                           : 272 pixels\nDisplay aspect ratio             : 16:9\nFrame rate mode                  : Variable\nFrame rate                       : 23.976 fps\nMinimum frame rate               : 23.974 fps\nMaximum frame rate               : 23.981 fps\nColor space                      : YUV\nChroma subsampling               : 4:2:0\nBit depth                        : 8 bits\nScan type                        : Progressive\nBits/(Pixel*Frame)               : 0.128\nStream size                      : 282 MiB (75%)\nWriting library                  : x264 core 79\n\nID                               : 2\nFormat                           : AAC\nFormat/Info                      : Advanced Audio Codec\nFormat version                   : Version 4\nFormat profile                   : LC\nFormat settings, SBR             : No\nCodec ID                         : 40\nDuration                         : 1h 38mn\nBit rate mode                    : Variable\nBit rate                         : 128 Kbps\nMaximum bit rate                 : 193 Kbps\nChannel(s)                       : 2 channels\nChannel positions                : Front: L R\nSampling rate                    : 48.0 KHz\nStream size                      : 89.9 MiB (24%)\n &lt;a href=&quot;\nhttp://img409.imageshack.us/img409/7416/vlcsnap00001.png&quot; rel=&quot;nofollow&quot; target=&quot;_NEW&quot;&gt;\nhttp://img409.imageshack.us/img409/7416/vlcsnap00001.png&lt;/a&gt; &lt;a href=&quot;\nhttp://img171.imageshack.us/img171/6350/vlcsnap00002y.png&quot; rel=&quot;nofollow&quot; target=&quot;_NEW&quot;&gt;\nhttp://img171.imageshack.us/img171/6350/vlcsnap00002y.png&lt;/a&gt; &lt;a href=&quot;\nhttp://img252.imageshack.us/img252/7278/vlcsnap00003n.png&quot; rel=&quot;nofollow&quot; target=&quot;_NEW&quot;&gt;\nhttp://img252.imageshack.us/img252/7278/vlcsnap00003n.png&lt;/a&gt; &lt;a href=&quot;\nhttp://img189.imageshack.us/img189/607/vlcsnap00004k.png&quot; rel=&quot;nofollow&quot; target=&quot;_NEW&quot;&gt;\nhttp://img189.imageshack.us/img189/607/vlcsnap00004k.png&lt;/a&gt; &lt;a href=&quot;\nhttp://img18.imageshack.us/img18/6604/vlcsnap00005dm.png&quot; rel=&quot;nofollow&quot; target=&quot;_NEW&quot;&gt;\nhttp://img18.imageshack.us/img18/6604/vlcsnap00005dm.png&lt;/a&gt; &lt;a href=&quot;\nhttp://img265.imageshack.us/img265/3051/vlcsnap00006z.png&quot; rel=&quot;nofollow&quot; target=&quot;_NEW&quot;&gt;\nhttp://img265.imageshack.us/img265/3051/vlcsnap00006z.png&lt;/a&gt; &lt;a href=&quot;\nhttp://img709.imageshack.us/img709/4292/vlcsnap00007o.png&quot; rel=&quot;nofollow&quot; target=&quot;_NEW&quot;&gt;\nhttp://img709.imageshack.us/img709/4292/vlcsnap00007o.png&lt;/a&gt; &lt;a href=&quot;\nhttp://img257.imageshack.us/img257/4205/vlcsnap00008q.png&quot; rel=&quot;nofollow&quot; target=&quot;_NEW&quot;&gt;\nhttp://img257.imageshack.us/img257/4205/vlcsnap00008q.png&lt;/a&gt;\n\n\n\n\n\n\nPLEASE LET THE TORRENT SEED AND SHARE IT WITH ALL YOU KNOW!\n\nLet me know what I can do to be your trusted source of Handheld videos.\n\n\n\n\n\n-OOO (on.off.on)\n\n","torrent":{"xt":"urn:btih:2d050d1157ad4ea7c5ba0a7e09f73589bb5f20fc","amp;dn":"The+Slammin+Salmon+%28PSP+%2B+Ipod+touch+%2B+Zune%29","amp;tr":["udp%3A%2F%2Ftracker.openbittorrent.com%3A80","udp%3A%2F%2Fopen.demonii.com%3A1337","udp%3A%2F%2Ftracker.coppersurfer.tk%3A6969","udp%3A%2F%2Fexodus.desync.com%3A6969"],"infoHash":"2d050d1157ad4ea7c5ba0a7e09f73589bb5f20fc","infoHashBuffer":{"type":"Buffer","data":[45,5,13,17,87,173,78,167,197,186,10,126,9,247,53,137,187,95,32,252]},"announce":[],"urlList":[]}}